<svg width="81" height="81" viewBox="0 0 81 81" fill="none" xmlns="http://www.w3.org/2000/svg">
<g clip-path="url(#clip0_3_15626)">
<path fill-rule="evenodd" clip-rule="evenodd" d="M81 40.5C81 62.8676 62.8676 81 40.5 81C18.1325 81 0 62.8676 0 40.5C0 18.1325 18.1325 0 40.5 0C62.8676 0 81 18.1325 81 40.5ZM33.2679 30.375C33.2679 26.3808 36.5058 23.1429 40.5 23.1429C44.4942 23.1429 47.7321 26.3808 47.7321 30.375C47.7321 34.3692 44.4942 37.6071 40.5 37.6071C38.1035 37.6071 36.1607 39.5499 36.1607 41.9464V45.6868C36.1607 48.0833 38.1035 50.0261 40.5 50.0261C42.8965 50.0261 44.8393 48.0833 44.8393 45.6868C51.5174 43.798 56.4107 37.6579 56.4107 30.375C56.4107 21.5878 49.2872 14.4643 40.5 14.4643C31.7128 14.4643 24.5893 21.5878 24.5893 30.375C24.5893 32.7715 26.5321 34.7143 28.9286 34.7143C31.3251 34.7143 33.2679 32.7715 33.2679 30.375ZM46.2857 60.75C46.2857 63.9454 43.6954 66.5357 40.5 66.5357C37.3046 66.5357 34.7143 63.9454 34.7143 60.75C34.7143 57.5546 37.3046 54.9643 40.5 54.9643C43.6954 54.9643 46.2857 57.5546 46.2857 60.75Z" fill="#3E2000"/>
</g>
<defs>
<clipPath id="clip0_3_15626">
<rect width="81" height="81" fill="white"/>
</clipPath>
</defs>
</svg>
