<svg width="81" height="81" viewBox="0 0 81 81" fill="none" xmlns="http://www.w3.org/2000/svg">
<path fill-rule="evenodd" clip-rule="evenodd" d="M12.834 0C8.94136 0 5.78571 3.15566 5.78571 7.04833V33.493C5.78571 37.3857 8.94136 40.5413 12.834 40.5413H68.1661C72.0588 40.5413 75.2143 37.3857 75.2143 33.493V7.04833C75.2143 3.15565 72.0588 0 68.1661 0H12.834ZM28.4708 54.6247C28.4708 59.2301 24.7373 62.9636 20.1319 62.9636C15.5263 62.9636 11.7928 59.2301 11.7928 54.6247C11.7928 50.0192 15.5263 46.2857 20.1319 46.2857C24.7373 46.2857 28.4708 50.0192 28.4708 54.6247ZM60.897 62.9636C65.5024 62.9636 69.2359 59.2301 69.2359 54.6247C69.2359 50.0192 65.5024 46.2857 60.897 46.2857C56.2914 46.2857 52.558 50.0192 52.558 54.6247C52.558 59.2301 56.2914 62.9636 60.897 62.9636ZM20.1313 67.4672C13.4337 67.4672 7.87441 72.3405 6.80631 78.7349C6.60138 79.9615 7.62922 80.9774 8.8728 80.9774H31.3899C32.6335 80.9774 33.6613 79.9615 33.4564 78.7349C32.3883 72.3405 26.829 67.4672 20.1313 67.4672ZM47.5718 78.7349C48.64 72.3405 54.1993 67.4672 60.897 67.4672C67.5945 67.4672 73.154 72.3405 74.222 78.7349C74.4269 79.9615 73.3993 80.9774 72.1554 80.9774H49.6384C48.3948 80.9774 47.367 79.9615 47.5718 78.7349ZM46.9998 12.2743C46.9998 15.8639 44.0899 18.7738 40.5003 18.7738C36.9107 18.7738 34.0008 15.8639 34.0008 12.2743C34.0008 8.68465 36.9107 5.77473 40.5003 5.77473C44.0899 5.77473 46.9998 8.68465 46.9998 12.2743ZM29.073 32.7299C29.989 27.2464 34.7564 23.0669 40.5 23.0669C46.2436 23.0669 51.011 27.2464 51.927 32.7299C52.1027 33.7817 51.2213 34.6528 50.1549 34.6528H30.8451C29.7787 34.6528 28.8973 33.7817 29.073 32.7299Z" fill="#A95F03"/>
</svg>
