<svg width="81" height="81" viewBox="0 0 81 81" fill="none" xmlns="http://www.w3.org/2000/svg">
<g clip-path="url(#clip0_9_61)">
<path fill-rule="evenodd" clip-rule="evenodd" d="M23.1429 0.132156C25.5394 0.132156 27.4821 2.07492 27.4821 4.47144V16.0429C27.4821 18.4394 25.5394 20.3821 23.1429 20.3821C20.7464 20.3821 18.8036 18.4394 18.8036 16.0429V4.47144C18.8036 2.07492 20.7464 0.132156 23.1429 0.132156ZM11.2205 31.4705C12.848 29.8429 15.0554 28.9286 17.3571 28.9286H46.2857C48.5874 28.9286 50.7949 29.8429 52.4224 31.4705C53.4107 32.4587 54.1359 33.6608 54.5533 34.9679H54.9643C59.9516 34.9679 64.734 36.949 68.2604 40.4754C71.7868 44.0017 73.7679 48.7844 73.7679 53.7715C73.7679 58.7586 71.7868 63.541 68.2604 67.0674C64.734 70.5938 59.9516 72.5748 54.9643 72.5748H53.6431C52.934 74.1185 51.9519 75.5394 50.7278 76.7637C48.0152 79.476 44.3362 81 40.5 81H23.1429C19.3067 81 15.6276 79.476 12.915 76.7637C10.2025 74.0508 8.67857 70.3716 8.67857 66.5357V37.6071C8.67857 35.3055 9.59295 33.098 11.2205 31.4705ZM54.9643 63.8963C57.6496 63.8963 60.2247 62.83 62.1235 60.9311C64.0224 59.0322 65.0893 56.4568 65.0893 53.7715C65.0893 51.0862 64.0224 48.5108 62.1235 46.612C60.2247 44.7132 57.6496 43.6465 54.9643 43.6465V63.8963ZM44.8393 4.47144C44.8393 2.07492 42.8965 0.132156 40.5 0.132156C38.1035 0.132156 36.1607 2.07492 36.1607 4.47144V16.0429C36.1607 18.4394 38.1035 20.3821 40.5 20.3821C42.8965 20.3821 44.8393 18.4394 44.8393 16.0429V4.47144Z" fill="#3E2000"/>
</g>
<defs>
<clipPath id="clip0_9_61">
<rect width="81" height="81" fill="white"/>
</clipPath>
</defs>
</svg>
