<svg width="24" height="24" viewBox="0 0 24 24" fill="none" xmlns="http://www.w3.org/2000/svg">
<path fill-rule="evenodd" clip-rule="evenodd" d="M6.00002 0C5.64954 0 5.33435 0.213386 5.20418 0.538809L3.76476 4.13738H20.2353L18.7958 0.538809C18.6657 0.213386 18.3506 0 18 0H6.00002ZM5.15284 23.2731L3.861 14.8762H20.1391L18.8472 23.2731C18.7829 23.6913 18.4231 24 18 24H6.00002C5.57695 24 5.21718 23.6913 5.15284 23.2731ZM3.62615 6.28023H20.3739C21.4017 6.28023 22.2348 7.00251 22.2348 7.89351V11.1201C22.2348 12.0111 21.4017 12.7334 20.3739 12.7334H3.62615C2.59843 12.7334 1.76529 12.0111 1.76529 11.1201V7.89351C1.76529 7.00251 2.59843 6.28023 3.62615 6.28023Z" fill="#A95F03"/>
</svg>
