<svg width="88" height="88" viewBox="0 0 88 88" fill="none" xmlns="http://www.w3.org/2000/svg">
<path fill-rule="evenodd" clip-rule="evenodd" d="M13.6704 77.6682C27.6326 89.3992 51.6871 85.6535 68.6702 68.6702C84.0381 53.3022 88.567 32.1439 80.5967 17.913C80.2906 19.0023 79.9361 20.1699 79.5294 21.3906C77.4633 27.5894 73.9093 35.5477 67.9794 41.4775C64.5851 44.8719 60.4348 46.4504 56.2974 47.2026C52.3027 47.9289 48.029 47.9288 44.179 47.9286H44C39.9457 47.9286 36.3396 47.9402 33.1082 48.5277C29.9575 49.1006 27.4824 50.1723 25.5764 52.0783C20.9054 56.7492 17.8337 63.3669 15.9247 69.0938C14.9845 71.9142 14.3571 74.4247 13.9662 76.2225C13.8454 76.7781 13.7476 77.264 13.6704 77.6682ZM7.40326 70.087C-0.566049 55.8558 3.96254 34.698 19.3303 19.3303C36.3133 2.34733 60.3673 -1.39826 74.3298 10.3321C74.2525 10.736 74.1545 11.2217 74.0338 11.7772C73.6428 13.5755 73.0155 16.0855 72.0751 18.9059C70.1662 24.633 67.0943 31.2507 62.4236 35.9217C60.5176 37.8277 58.0425 38.8994 54.8918 39.4723C51.6604 40.0598 48.0543 40.0714 44 40.0714H43.821C39.971 40.0712 35.6973 40.071 31.7026 40.7974C27.5652 41.5496 23.4149 43.1281 20.0206 46.5224C14.0908 52.4523 10.537 60.4106 8.47076 66.6097C8.06388 67.8298 7.70981 68.9977 7.40326 70.087Z" fill="#A95F03"/>
</svg>
