<svg width="24" height="24" viewBox="0 0 24 24" fill="none" xmlns="http://www.w3.org/2000/svg">
<g clip-path="url(#clip0_49_140)">
<path fill-rule="evenodd" clip-rule="evenodd" d="M12 0.474609C11.6598 0.474609 11.3268 0.571926 11.0401 0.755072C10.7571 0.935877 10.531 1.19288 10.3877 1.4964L7.66621 6.99084C7.66086 7.00164 7.65574 7.01254 7.65085 7.02357L7.6453 7.03044L7.63707 7.03365C7.62663 7.03479 7.61621 7.03615 7.60582 7.03769L1.61339 7.92545C1.28219 7.95766 0.966347 8.08195 0.701807 8.28458C0.428084 8.49425 0.221029 8.77879 0.105726 9.10373C-0.00957752 9.42867 -0.0281829 9.78009 0.0521641 10.1154C0.1322 10.4494 0.307004 10.7531 0.555517 10.9901L4.94199 15.2224L4.95198 15.2319C4.95824 15.2378 4.96296 15.2451 4.96566 15.2532C4.96837 15.2613 4.96901 15.27 4.9675 15.2785L3.92127 21.4013C3.86384 21.7329 3.9002 22.0754 4.02673 22.387C4.15344 22.6994 4.36525 22.9697 4.63805 23.1675C4.91086 23.3652 5.23369 23.4825 5.56983 23.5058C5.9053 23.5291 6.24058 23.4579 6.53766 23.3006L6.53946 23.2995L11.9386 20.4461C11.9579 20.4377 11.9789 20.4333 12 20.4333C12.0212 20.4333 12.0421 20.4377 12.0615 20.4461L17.4605 23.2995C17.7578 23.4574 18.0945 23.5293 18.4301 23.5058C18.7663 23.4825 19.0891 23.3652 19.362 23.1675C19.6347 22.9697 19.8466 22.6994 19.9733 22.387C20.0998 22.0754 20.1363 21.7346 20.0791 21.4032L20.0787 21.4013L19.0335 15.2841L19.0325 15.2785C19.031 15.27 19.0317 15.2613 19.0344 15.2532C19.037 15.2451 19.0418 15.2378 19.0479 15.2319L19.0581 15.2224L23.4446 10.9901C23.693 10.7531 23.8678 10.4494 23.9479 10.1154C24.0281 9.78009 24.0096 9.42867 23.8942 9.10373C23.779 8.77879 23.5719 8.49425 23.2982 8.28458C23.0337 8.08195 22.7179 7.95766 22.3867 7.92545L16.3942 7.03769C16.3838 7.03615 16.3734 7.03479 16.3629 7.03365L16.3547 7.03044L16.3492 7.02357C16.3443 7.01254 16.3391 7.00164 16.3338 6.99084L13.6122 1.49638C13.469 1.19287 13.2429 0.935872 12.9599 0.755072C12.6732 0.571926 12.3402 0.474609 12 0.474609Z" fill="#A95F03"/>
</g>
<defs>
<clipPath id="clip0_49_140">
<rect width="24" height="24" fill="white"/>
</clipPath>
</defs>
</svg>
